<svg width="46" height="26" viewBox="0 0 46 26" fill="none" xmlns="http://www.w3.org/2000/svg">
<rect width="46" height="26" rx="5" fill="#E9E9E9"/>
<path d="M13.5278 20C12.8296 20 12.2338 19.7532 11.7403 19.2597C11.2468 18.7662 11 18.1704 11 17.4722C11 16.7741 11.2468 16.1782 11.7403 15.6847C12.2338 15.1912 12.8296 14.9444 13.5278 14.9444H14.6111V12.0556H13.5278C12.8296 12.0556 12.2338 11.8088 11.7403 11.3153C11.2468 10.8218 11 10.2259 11 9.52778C11 8.82963 11.2468 8.2338 11.7403 7.74028C12.2338 7.24676 12.8296 7 13.5278 7C14.2259 7 14.8218 7.24676 15.3153 7.74028C15.8088 8.2338 16.0556 8.82963 16.0556 9.52778V10.6111H18.9444V9.52778C18.9444 8.82963 19.1912 8.2338 19.6847 7.74028C20.1782 7.24676 20.7741 7 21.4722 7C22.1704 7 22.7662 7.24676 23.2597 7.74028C23.7532 8.2338 24 8.82963 24 9.52778C24 10.2259 23.7532 10.8218 23.2597 11.3153C22.7662 11.8088 22.1704 12.0556 21.4722 12.0556H20.3889V14.9444H21.4722C22.1704 14.9444 22.7662 15.1912 23.2597 15.6847C23.7532 16.1782 24 16.7741 24 17.4722C24 18.1704 23.7532 18.7662 23.2597 19.2597C22.7662 19.7532 22.1704 20 21.4722 20C20.7741 20 20.1782 19.7532 19.6847 19.2597C19.1912 18.7662 18.9444 18.1704 18.9444 17.4722V16.3889H16.0556V17.4722C16.0556 18.1704 15.8088 18.7662 15.3153 19.2597C14.8218 19.7532 14.2259 20 13.5278 20ZM13.5278 18.5556C13.8287 18.5556 14.0844 18.4501 14.2948 18.2392C14.5057 18.0288 14.6111 17.7731 14.6111 17.4722V16.3889H13.5278C13.2269 16.3889 12.9712 16.4943 12.7608 16.7052C12.5499 16.9156 12.4444 17.1713 12.4444 17.4722C12.4444 17.7731 12.5499 18.0288 12.7608 18.2392C12.9712 18.4501 13.2269 18.5556 13.5278 18.5556ZM21.4722 18.5556C21.7731 18.5556 22.0288 18.4501 22.2392 18.2392C22.4501 18.0288 22.5556 17.7731 22.5556 17.4722C22.5556 17.1713 22.4501 16.9156 22.2392 16.7052C22.0288 16.4943 21.7731 16.3889 21.4722 16.3889H20.3889V17.4722C20.3889 17.7731 20.4943 18.0288 20.7052 18.2392C20.9156 18.4501 21.1713 18.5556 21.4722 18.5556ZM16.0556 14.9444H18.9444V12.0556H16.0556V14.9444ZM13.5278 10.6111H14.6111V9.52778C14.6111 9.22685 14.5057 8.97119 14.2948 8.76078C14.0844 8.54989 13.8287 8.44444 13.5278 8.44444C13.2269 8.44444 12.9712 8.54989 12.7608 8.76078C12.5499 8.97119 12.4444 9.22685 12.4444 9.52778C12.4444 9.8287 12.5499 10.0844 12.7608 10.2948C12.9712 10.5057 13.2269 10.6111 13.5278 10.6111ZM20.3889 10.6111H21.4722C21.7731 10.6111 22.0288 10.5057 22.2392 10.2948C22.4501 10.0844 22.5556 9.8287 22.5556 9.52778C22.5556 9.22685 22.4501 8.97119 22.2392 8.76078C22.0288 8.54989 21.7731 8.44444 21.4722 8.44444C21.1713 8.44444 20.9156 8.54989 20.7052 8.76078C20.4943 8.97119 20.3889 9.22685 20.3889 9.52778V10.6111Z" fill="black"/>
<path d="M28.4091 19V7.36364H35.3864V8.61364H29.8182V12.5455H34.8636V13.7955H29.8182V19H28.4091Z" fill="black"/>
</svg>
